<svg width="20" height="21" viewBox="0 0 20 21" fill="none" xmlns="http://www.w3.org/2000/svg">
<g clip-path="url(#clip0_801_6)">
<path d="M5.00004 8.8335C4.08337 8.8335 3.33337 9.5835 3.33337 10.5002C3.33337 11.4168 4.08337 12.1668 5.00004 12.1668C5.91671 12.1668 6.66671 11.4168 6.66671 10.5002C6.66671 9.5835 5.91671 8.8335 5.00004 8.8335ZM15 8.8335C14.0834 8.8335 13.3334 9.5835 13.3334 10.5002C13.3334 11.4168 14.0834 12.1668 15 12.1668C15.9167 12.1668 16.6667 11.4168 16.6667 10.5002C16.6667 9.5835 15.9167 8.8335 15 8.8335ZM10 8.8335C9.08337 8.8335 8.33337 9.5835 8.33337 10.5002C8.33337 11.4168 9.08337 12.1668 10 12.1668C10.9167 12.1668 11.6667 11.4168 11.6667 10.5002C11.6667 9.5835 10.9167 8.8335 10 8.8335Z" fill="white" fill-opacity="0.5"/>
</g>
<defs>
<clipPath id="clip0_801_6">
<rect width="20" height="20" fill="white" transform="translate(0 0.5)"/>
</clipPath>
</defs>
</svg>
